<svg width="240" height="33" viewBox="0 0 240 33" fill="none" xmlns="http://www.w3.org/2000/svg">
<path d="M202.99 25L206.16 18H207.15L210.33 25H209.28L206.45 18.56H206.85L204.02 25H202.99ZM204.34 23.25L204.61 22.45H208.55L208.84 23.25H204.34ZM211.374 25V18H214.324C215.071 18 215.728 18.1467 216.294 18.44C216.868 18.7333 217.311 19.1433 217.624 19.67C217.944 20.1967 218.104 20.8067 218.104 21.5C218.104 22.1933 217.944 22.8033 217.624 23.33C217.311 23.8567 216.868 24.2667 216.294 24.56C215.728 24.8533 215.071 25 214.324 25H211.374ZM212.374 24.13H214.264C214.844 24.13 215.344 24.02 215.764 23.8C216.191 23.58 216.521 23.2733 216.754 22.88C216.988 22.48 217.104 22.02 217.104 21.5C217.104 20.9733 216.988 20.5133 216.754 20.12C216.521 19.7267 216.191 19.42 215.764 19.2C215.344 18.98 214.844 18.87 214.264 18.87H212.374V24.13ZM219.636 25V18H220.456L223.596 23.29H223.156L226.256 18H227.076L227.086 25H226.126L226.116 19.51H226.346L223.586 24.15H223.126L220.346 19.51H220.596V25H219.636ZM229.187 25V18H230.187V25H229.187ZM232.282 25V18H233.102L237.732 23.75H237.302V18H238.302V25H237.482L232.852 19.25H233.282V25H232.282Z" fill="#CE2121"/>
<path d="M48.256 25V8.2H50.824L58.168 20.464H56.824L64.048 8.2H66.616L66.64 25H63.688L63.664 12.832H64.288L58.144 23.08H56.752L50.512 12.832H51.232V25H48.256ZM78.7859 25V22.408L78.6179 21.856V17.32C78.6179 16.44 78.3539 15.76 77.8259 15.28C77.2979 14.784 76.4979 14.536 75.4259 14.536C74.7059 14.536 73.9939 14.648 73.2899 14.872C72.6019 15.096 72.0179 15.408 71.5379 15.808L70.3619 13.624C71.0499 13.096 71.8659 12.704 72.8099 12.448C73.7699 12.176 74.7619 12.04 75.7859 12.04C77.6419 12.04 79.0739 12.488 80.0819 13.384C81.1059 14.264 81.6179 15.632 81.6179 17.488V25H78.7859ZM74.7539 25.168C73.7939 25.168 72.9539 25.008 72.2339 24.688C71.5139 24.352 70.9539 23.896 70.5539 23.32C70.1699 22.728 69.9779 22.064 69.9779 21.328C69.9779 20.608 70.1459 19.96 70.4819 19.384C70.8339 18.808 71.4019 18.352 72.1859 18.016C72.9699 17.68 74.0099 17.512 75.3059 17.512H79.0259V19.504H75.5219C74.4979 19.504 73.8099 19.672 73.4579 20.008C73.1059 20.328 72.9299 20.728 72.9299 21.208C72.9299 21.752 73.1459 22.184 73.5779 22.504C74.0099 22.824 74.6099 22.984 75.3779 22.984C76.1139 22.984 76.7699 22.816 77.3459 22.48C77.9379 22.144 78.3619 21.648 78.6179 20.992L79.1219 22.792C78.8339 23.544 78.3139 24.128 77.5619 24.544C76.8259 24.96 75.8899 25.168 74.7539 25.168ZM92.74 12.04C93.764 12.04 94.676 12.24 95.476 12.64C96.292 13.04 96.932 13.656 97.396 14.488C97.86 15.304 98.092 16.36 98.092 17.656V25H95.092V18.04C95.092 16.904 94.82 16.056 94.276 15.496C93.748 14.936 93.004 14.656 92.044 14.656C91.34 14.656 90.716 14.8 90.172 15.088C89.628 15.376 89.204 15.808 88.9 16.384C88.612 16.944 88.468 17.656 88.468 18.52V25H85.468V12.184H88.324V15.64L87.82 14.584C88.268 13.768 88.916 13.144 89.764 12.712C90.628 12.264 91.62 12.04 92.74 12.04ZM107.345 25.168C106.113 25.168 105.001 24.896 104.009 24.352C103.033 23.792 102.265 23.024 101.705 22.048C101.145 21.072 100.865 19.92 100.865 18.592C100.865 17.264 101.145 16.112 101.705 15.136C102.265 14.16 103.033 13.4 104.009 12.856C105.001 12.312 106.113 12.04 107.345 12.04C108.417 12.04 109.377 12.28 110.225 12.76C111.073 13.224 111.745 13.936 112.241 14.896C112.737 15.856 112.985 17.088 112.985 18.592C112.985 20.08 112.745 21.312 112.265 22.288C111.785 23.248 111.121 23.968 110.273 24.448C109.425 24.928 108.449 25.168 107.345 25.168ZM107.705 22.6C108.425 22.6 109.065 22.44 109.625 22.12C110.201 21.8 110.657 21.336 110.993 20.728C111.345 20.12 111.521 19.408 111.521 18.592C111.521 17.76 111.345 17.048 110.993 16.456C110.657 15.848 110.201 15.384 109.625 15.064C109.065 14.744 108.425 14.584 107.705 14.584C106.985 14.584 106.337 14.744 105.761 15.064C105.201 15.384 104.745 15.848 104.393 16.456C104.057 17.048 103.889 17.76 103.889 18.592C103.889 19.408 104.057 20.12 104.393 20.728C104.745 21.336 105.201 21.8 105.761 22.12C106.337 22.44 106.985 22.6 107.705 22.6ZM111.593 25V21.976L111.713 18.568L111.473 15.16V7.192H114.449V25H111.593ZM123.822 25.168C122.734 25.168 121.774 24.968 120.942 24.568C120.11 24.152 119.462 23.528 118.998 22.696C118.534 21.848 118.302 20.784 118.302 19.504V12.184H121.302V19.096C121.302 20.248 121.558 21.112 122.07 21.688C122.598 22.248 123.342 22.528 124.302 22.528C125.006 22.528 125.614 22.384 126.126 22.096C126.654 21.808 127.062 21.376 127.35 20.8C127.654 20.224 127.806 19.512 127.806 18.664V12.184H130.806V25H127.95V21.544L128.454 22.6C128.022 23.432 127.39 24.072 126.558 24.52C125.726 24.952 124.814 25.168 123.822 25.168ZM149.43 25.24C148.15 25.24 146.958 25.032 145.854 24.616C144.766 24.184 143.814 23.584 142.998 22.816C142.198 22.032 141.574 21.112 141.126 20.056C140.678 19 140.454 17.848 140.454 16.6C140.454 15.352 140.678 14.2 141.126 13.144C141.574 12.088 142.206 11.176 143.022 10.408C143.838 9.624 144.79 9.024 145.878 8.608C146.966 8.176 148.158 7.96 149.454 7.96C150.83 7.96 152.086 8.2 153.222 8.68C154.358 9.144 155.318 9.84 156.102 10.768L154.086 12.664C153.478 12.008 152.798 11.52 152.046 11.2C151.294 10.864 150.478 10.696 149.598 10.696C148.718 10.696 147.91 10.84 147.174 11.128C146.454 11.416 145.822 11.824 145.278 12.352C144.75 12.88 144.334 13.504 144.03 14.224C143.742 14.944 143.598 15.736 143.598 16.6C143.598 17.464 143.742 18.256 144.03 18.976C144.334 19.696 144.75 20.32 145.278 20.848C145.822 21.376 146.454 21.784 147.174 22.072C147.91 22.36 148.718 22.504 149.598 22.504C150.478 22.504 151.294 22.344 152.046 22.024C152.798 21.688 153.478 21.184 154.086 20.512L156.102 22.432C155.318 23.344 154.358 24.04 153.222 24.52C152.086 25 150.822 25.24 149.43 25.24ZM166.583 25V22.408L166.415 21.856V17.32C166.415 16.44 166.151 15.76 165.623 15.28C165.095 14.784 164.295 14.536 163.223 14.536C162.503 14.536 161.791 14.648 161.087 14.872C160.399 15.096 159.815 15.408 159.335 15.808L158.159 13.624C158.847 13.096 159.663 12.704 160.607 12.448C161.567 12.176 162.559 12.04 163.583 12.04C165.439 12.04 166.871 12.488 167.879 13.384C168.903 14.264 169.415 15.632 169.415 17.488V25H166.583ZM162.551 25.168C161.591 25.168 160.751 25.008 160.031 24.688C159.311 24.352 158.751 23.896 158.351 23.32C157.967 22.728 157.775 22.064 157.775 21.328C157.775 20.608 157.943 19.96 158.279 19.384C158.631 18.808 159.199 18.352 159.983 18.016C160.767 17.68 161.807 17.512 163.103 17.512H166.823V19.504H163.319C162.295 19.504 161.607 19.672 161.255 20.008C160.903 20.328 160.727 20.728 160.727 21.208C160.727 21.752 160.943 22.184 161.375 22.504C161.807 22.824 162.407 22.984 163.175 22.984C163.911 22.984 164.567 22.816 165.143 22.48C165.735 22.144 166.159 21.648 166.415 20.992L166.919 22.792C166.631 23.544 166.111 24.128 165.359 24.544C164.623 24.96 163.687 25.168 162.551 25.168ZM173.265 25V12.184H176.121V15.712L175.785 14.68C176.169 13.816 176.769 13.16 177.585 12.712C178.417 12.264 179.449 12.04 180.681 12.04V14.896C180.553 14.864 180.433 14.848 180.321 14.848C180.209 14.832 180.097 14.824 179.985 14.824C178.849 14.824 177.945 15.16 177.273 15.832C176.601 16.488 176.265 17.472 176.265 18.784V25H173.265ZM188.519 25.168C187.111 25.168 186.023 24.808 185.255 24.088C184.487 23.352 184.103 22.272 184.103 20.848V9.352H187.103V20.776C187.103 21.384 187.255 21.856 187.559 22.192C187.879 22.528 188.319 22.696 188.879 22.696C189.551 22.696 190.111 22.52 190.559 22.168L191.399 24.304C191.047 24.592 190.615 24.808 190.103 24.952C189.591 25.096 189.063 25.168 188.519 25.168ZM181.991 14.68V12.28H190.535V14.68H181.991Z" fill="black"/>
<path d="M195.07 25.182C194.481 25.182 193.978 24.9827 193.562 24.584C193.146 24.168 192.938 23.648 192.938 23.024C192.938 22.3653 193.146 21.8453 193.562 21.464C193.978 21.0653 194.481 20.866 195.07 20.866C195.66 20.866 196.162 21.0653 196.578 21.464C196.994 21.8453 197.202 22.3653 197.202 23.024C197.202 23.648 196.994 24.168 196.578 24.584C196.162 24.9827 195.66 25.182 195.07 25.182Z" fill="#CE2121"/>
<path d="M27.7796 29.733C27.7796 31.5456 26.4474 33 24.787 33C23.1267 33 21.7813 31.5456 21.7813 29.733C21.7813 27.9203 23.1332 26.4516 24.787 26.4516C26.4539 26.4516 27.7796 27.9203 27.7796 29.733ZM11.1171 26.4516C9.45673 26.4516 8.12452 27.9275 8.12452 29.733C8.12452 31.5384 9.45673 33 11.1171 33C12.7774 33 14.1228 31.5456 14.1228 29.733C14.1228 27.9203 12.7774 26.4516 11.1171 26.4516ZM30.2602 7.10725C10.428 7.10725 5.37478 6.19019 0 0C2.25754 3.70408 3.49788 10.668 24.4851 10.3313C46.3583 9.97308 33.0165 16.5 29.1315 23.8652C41.3839 11.9218 50.0925 7.10725 30.2602 7.10725Z" fill="black"/>
</svg>
