<svg width="1001" height="826" viewBox="0 0 1001 826" fill="none" xmlns="http://www.w3.org/2000/svg">
<path d="M662.08 744.225C662.08 789.596 630.329 826 590.757 826C551.186 826 519.122 789.596 519.122 744.225C519.122 698.854 551.342 662.091 590.757 662.091C630.485 662.091 662.08 698.854 662.08 744.225ZM264.957 662.091C225.385 662.091 193.634 699.034 193.634 744.225C193.634 789.417 225.385 826 264.957 826C304.528 826 336.592 789.596 336.592 744.225C336.592 698.854 304.528 662.091 264.957 662.091ZM721.202 177.897C248.534 177.897 128.099 154.942 0 0C53.8047 92.7143 83.3661 267.024 583.562 258.596C1104.87 249.629 786.894 413 694.3 597.353C986.316 298.407 1193.87 177.897 721.202 177.897Z" fill="white"/>
</svg>
